<svg width="34" height="34" viewBox="0 0 34 34" fill="none" xmlns="http://www.w3.org/2000/svg">
<rect width="34" height="34" rx="17" fill="#6C3EA9"/>
<path d="M6.25199 10.6934C7.15202 10.6918 8.05569 10.6813 8.95535 10.6967C9.31377 11.1918 9.6389 11.7031 9.97761 12.2055L11.676 14.7063L16.0421 21.0108C16.7003 21.9905 17.3686 22.9667 18.0469 23.9394C18.3315 24.3547 18.5981 24.7744 18.8967 25.1851C18.6817 25.4753 18.4889 25.775 18.2875 26.0701L17.3231 27.4899C17.2269 27.6356 17.1319 27.7816 17.0263 27.924C16.7596 27.5926 16.5354 27.1986 16.3004 26.8509C15.8447 26.1769 15.3781 25.5077 14.9318 24.8302C14.3857 24.0014 13.7976 23.1847 13.2344 22.3615C12.8326 21.7742 12.4563 21.1785 12.0555 20.5909L7.13778 13.3829L5.84805 11.5244C5.65919 11.2508 5.45845 10.9794 5.2876 10.6997L6.25199 10.6934Z" fill="white"/>
<path d="M23.3642 13.3018C24.5647 13.3318 25.7727 13.3087 26.9743 13.3126L20.2264 23.2622L19.6571 24.1166C19.4605 23.8544 19.2885 23.5809 19.1054 23.3137L17.8177 21.4294C18.3942 20.5605 18.9839 19.6962 19.5867 18.8364L23.3642 13.3018Z" fill="white"/>
<path d="M27.2299 10.6934C27.7241 10.6909 28.2183 10.6954 28.7125 10.6865C28.3726 11.2601 27.9619 11.8094 27.5887 12.3718C26.8991 12.353 26.2027 12.367 25.5125 12.3678C25.0092 12.3655 24.5059 12.3666 24.0026 12.3711C24.3447 11.8036 24.7685 11.2548 25.1425 10.6974L27.2299 10.6934Z" fill="white"/>
<path d="M17.011 17.2715L18.7703 15.0996H15.2517L17.011 17.2715Z" fill="white"/>
<path d="M12.3677 11.48L21.6546 11.48L20.2035 13.5484L13.8188 13.5484L12.3677 11.48Z" fill="white"/>
<path d="M9.46533 7.75684L24.5565 7.75684L23.1054 10.1355L10.9164 10.1355L9.46533 7.75684Z" fill="white"/>
</svg>
